<svg viewBox="0 0 24 24" fill="none" xmlns="http://www.w3.org/2000/svg">
  <style>
    @media (prefers-color-scheme: dark) { path { stroke: #fff; } }
    @media (prefers-color-scheme: light) { path { stroke: #000; } }
  </style>
  <path
    d="M12 2C12 2 14 6.5 17 8C20 9.5 22 12 22 12C22 12 20 14.5 17 16C14 17.5 12 22 12 22C12 22 10 17.5 7 16C4 14.5 2 12 2 12C2 12 4 9.5 7 8C10 6.5 12 2 12 2Z"
    stroke="black"
    stroke-width="1.5"
    stroke-linecap="round"
    stroke-linejoin="round"
    fill="none"
  />
  <path
    d="M10 8V16M10 8H13.5C14.88 8 16 9.12 16 10.5V10.5C16 11.88 14.88 13 13.5 13H10"
    stroke="black"
    stroke-width="2"
    stroke-linecap="round"
    stroke-linejoin="round"
    fill="none"
  />
</svg>
